<svg width="515" height="289" viewBox="0 0 515 289" fill="none" xmlns="http://www.w3.org/2000/svg">
<path d="M50.7486 17.9897C47.8222 16.2409 45.3412 13.8892 43.4326 11.1154L38.4705 3.81905C35.9894 0.140721 30.3275 0.140721 27.8464 3.81905L22.2481 12.0199C20.7213 14.251 18.8128 16.1806 16.3954 17.5072C7.29812 22.6931 1.12726 32.1603 1.12726 43.0143C1.12726 59.4764 15.1866 72.8028 32.5541 72.8028H33.8265C51.1939 72.8028 65.2533 59.4764 65.2533 43.0143C65.1897 32.5221 59.4642 23.2961 50.7486 17.9897ZM34.0173 53.386H33.572C27.1467 53.386 21.9937 48.4414 21.9937 42.4113C21.9937 38.4315 24.2839 34.9341 27.6556 33.0045C28.5462 32.5221 29.246 31.7985 29.8186 30.9543L31.8543 27.9392C32.745 26.6126 34.8443 26.6126 35.7986 27.9392L37.6435 30.6527C38.3433 31.6779 39.2339 32.5221 40.3154 33.1854C43.4963 35.115 45.6592 38.5521 45.6592 42.4113C45.5956 48.5017 40.379 53.386 34.0173 53.386Z" stroke="#2D1415" stroke-miterlimit="10"/>
<path d="M15.5683 127.556C18.4947 129.304 20.9758 131.656 22.8843 134.43L27.91 141.786C30.3911 145.465 36.053 145.465 38.5341 141.786L44.1324 133.586C45.6592 131.355 47.5677 129.425 49.9852 128.098C59.146 122.912 65.3169 113.445 65.3169 102.591C65.3169 86.1291 51.2575 72.8027 33.89 72.8027H32.6177C15.2502 72.8027 1.19083 86.1291 1.19083 102.591C1.12722 113.023 6.85275 122.249 15.5683 127.556ZM32.2996 92.1592H32.7449C39.1703 92.1592 44.3232 97.1038 44.3232 103.134C44.3232 107.114 42.033 110.611 38.6613 112.541C37.7707 113.023 37.0709 113.747 36.4983 114.591L34.4626 117.606C33.5719 118.933 31.4726 118.933 30.5183 117.606L28.6734 114.892C27.9736 113.867 27.083 113.023 26.0015 112.36C22.8207 110.43 20.6577 106.993 20.6577 103.134C20.7213 97.1038 25.9379 92.1592 32.2996 92.1592Z" stroke="#2D1415" stroke-miterlimit="10"/>
<path d="M79.6307 55.8584C82.5571 57.6071 85.0382 59.9588 86.9467 62.7327L91.9725 70.0893C94.4535 73.7676 100.115 73.7676 102.597 70.0893L108.195 61.8885C109.722 59.6573 111.63 57.7277 114.048 56.4011C123.208 51.2153 129.379 41.7481 129.379 30.894C129.379 14.432 115.32 1.10559 97.9525 1.10559H96.6801C79.3127 1.10559 65.2533 14.432 65.2533 30.894C65.1897 41.326 70.9152 50.552 79.6307 55.8584ZM96.362 20.462H96.8074C103.233 20.462 108.386 25.4067 108.386 31.4367C108.386 35.4166 106.095 38.914 102.724 40.8436C101.833 41.326 101.133 42.0496 100.561 42.8938L98.525 45.9088C97.6344 47.2354 95.535 47.2354 94.5808 45.9088L92.7359 43.1953C92.0361 42.1702 91.1454 41.326 90.0639 40.6627C86.8831 38.7331 84.7201 35.296 84.7201 31.4367C84.7837 25.3464 89.9367 20.462 96.362 20.462Z" stroke="#2D1415" stroke-miterlimit="10"/>
<path d="M79.6307 127.556C82.5571 129.304 85.0382 131.656 86.9467 134.43L91.9725 141.786C94.4535 145.465 100.115 145.465 102.597 141.786L108.195 133.586C109.722 131.355 111.63 129.425 114.048 128.098C123.208 122.912 129.379 113.445 129.379 102.591C129.379 86.1291 115.32 72.8027 97.9525 72.8027H96.6801C79.3127 72.8027 65.2533 86.1291 65.2533 102.591C65.1897 113.023 70.9152 122.249 79.6307 127.556ZM96.362 92.1592H96.8074C103.233 92.1592 108.386 97.1038 108.386 103.134C108.386 107.114 106.095 110.611 102.724 112.541C101.833 113.023 101.133 113.747 100.561 114.591L98.525 117.606C97.6344 118.933 95.535 118.933 94.5808 117.606L92.7359 114.892C92.0361 113.867 91.1454 113.023 90.0639 112.36C86.8831 110.43 84.7201 106.993 84.7201 103.134C84.7837 97.1038 89.9367 92.1592 96.362 92.1592Z" stroke="#2D1415" stroke-miterlimit="10"/>
<path d="M178.873 17.9897C175.947 16.2409 173.466 13.8892 171.558 11.1154L166.532 3.75875C164.051 0.0804179 158.389 0.0804179 155.908 3.75875L150.309 11.9596C148.783 14.1907 146.874 16.1203 144.457 17.447C135.359 22.6931 129.252 32.1603 129.252 43.0143C129.252 59.4764 143.312 72.8028 160.679 72.8028H161.951C179.319 72.8028 193.378 59.4764 193.378 43.0143C193.315 32.5221 187.525 23.2961 178.873 17.9897ZM162.142 53.386H161.697C155.272 53.386 150.119 48.4414 150.119 42.4113C150.119 38.4315 152.409 34.9341 155.78 33.0045C156.671 32.5221 157.371 31.7985 157.943 30.9543L159.979 27.9392C160.87 26.6126 162.969 26.6126 163.923 27.9392L165.768 30.6528C166.468 31.6779 167.359 32.5221 168.44 33.1854C171.621 35.115 173.784 38.5521 173.784 42.4113C173.72 48.5017 168.504 53.386 162.142 53.386Z" stroke="#2D1415" stroke-miterlimit="10"/>
<path d="M143.63 127.556C146.556 129.304 149.037 131.656 150.946 134.43L155.971 141.786C158.452 145.465 164.114 145.465 166.595 141.786L172.194 133.586C173.72 131.355 175.629 129.425 178.046 128.098C187.207 122.912 193.378 113.445 193.378 102.591C193.378 86.1291 179.319 72.8027 161.951 72.8027H160.679C143.312 72.8027 129.252 86.1291 129.252 102.591C129.252 113.023 134.978 122.249 143.63 127.556ZM160.425 92.1592H160.87C167.295 92.1592 172.448 97.1038 172.448 103.134C172.448 107.114 170.158 110.611 166.786 112.541C165.896 113.023 165.196 113.747 164.623 114.591L162.587 117.606C161.697 118.933 159.598 118.933 158.643 117.606L156.798 114.892C156.099 113.867 155.208 113.023 154.126 112.36C150.946 110.43 148.783 106.993 148.783 103.134C148.846 97.1038 153.999 92.1592 160.425 92.1592Z" stroke="#2D1415" stroke-miterlimit="10"/>
<path d="M207.692 55.8584C210.618 57.6071 213.099 59.9588 215.008 62.7327L220.034 70.0893C222.515 73.7676 228.177 73.7676 230.658 70.0893L236.256 61.8885C237.783 59.6573 239.691 57.7277 242.109 56.4011C251.27 51.2153 257.441 41.7481 257.441 30.894C257.441 14.432 243.381 1.10559 226.014 1.10559H224.741C207.374 1.10559 193.315 14.432 193.315 30.894C193.315 41.326 199.04 50.552 207.692 55.8584ZM224.487 20.462H224.932C231.358 20.462 236.511 25.4067 236.511 31.4367C236.511 35.4166 234.22 38.914 230.849 40.8436C229.958 41.326 229.258 42.0496 228.686 42.8938L226.65 45.9088C225.759 47.2354 223.66 47.2354 222.706 45.9088L220.861 43.1953C220.161 42.1702 219.27 41.326 218.189 40.6627C215.008 38.7331 212.845 35.296 212.845 31.4367C212.845 25.3464 218.062 20.462 224.487 20.462Z" stroke="#2D1415" stroke-miterlimit="10"/>
<path d="M207.692 127.556C210.618 129.304 213.099 131.656 215.008 134.43L220.034 141.786C222.515 145.465 228.177 145.465 230.658 141.786L236.256 133.586C237.783 131.355 239.691 129.425 242.109 128.098C251.27 122.912 257.441 113.445 257.441 102.591C257.441 86.1291 243.381 72.8027 226.014 72.8027H224.741C207.374 72.8027 193.315 86.1291 193.315 102.591C193.315 113.023 199.04 122.249 207.692 127.556ZM224.487 92.1592H224.932C231.358 92.1592 236.511 97.1038 236.511 103.134C236.511 107.114 234.22 110.611 230.849 112.541C229.958 113.023 229.258 113.747 228.686 114.591L226.65 117.606C225.759 118.933 223.66 118.933 222.706 117.606L220.861 114.892C220.161 113.867 219.27 113.023 218.189 112.36C215.008 110.43 212.845 106.993 212.845 103.134C212.845 97.1038 218.062 92.1592 224.487 92.1592Z" stroke="#2D1415" stroke-miterlimit="10"/>
<path d="M189.179 150.952C189.879 151.374 190.452 151.917 190.897 152.52L192.042 154.208C192.615 155.053 193.951 155.053 194.523 154.208L195.796 152.279C196.177 151.736 196.623 151.314 197.132 151.012C199.295 149.806 200.694 147.575 200.694 145.043C200.694 141.183 197.45 138.108 193.378 138.108H193.06C188.989 138.108 185.744 141.183 185.744 145.043C185.808 147.575 187.144 149.746 189.179 150.952ZM193.06 142.751H193.187C194.65 142.751 195.859 143.897 195.859 145.284C195.859 146.188 195.35 147.033 194.523 147.455C194.332 147.575 194.142 147.756 194.014 147.937L193.505 148.661C193.315 148.962 192.806 148.962 192.615 148.661L192.169 148.058C191.979 147.817 191.788 147.636 191.533 147.455C190.77 146.972 190.325 146.188 190.325 145.284C190.388 143.897 191.597 142.751 193.06 142.751Z" fill="#2D1415"/>
<path d="M125.117 150.952C125.817 151.374 126.389 151.917 126.835 152.52L127.98 154.208C128.552 155.053 129.888 155.053 130.461 154.208L131.733 152.279C132.115 151.736 132.56 151.314 133.069 151.012C135.232 149.806 136.632 147.575 136.632 145.043C136.632 141.183 133.387 138.108 129.316 138.108H128.998C124.926 138.108 121.682 141.183 121.682 145.043C121.745 147.575 123.145 149.746 125.117 150.952ZM129.061 142.751H129.189C130.652 142.751 131.86 143.897 131.86 145.284C131.86 146.188 131.352 147.033 130.524 147.455C130.334 147.575 130.143 147.756 130.016 147.937L129.507 148.661C129.316 148.962 128.807 148.962 128.616 148.661L128.171 148.058C127.98 147.817 127.789 147.636 127.534 147.455C126.771 146.972 126.326 146.188 126.326 145.284C126.326 143.897 127.534 142.751 129.061 142.751Z" fill="#2D1415"/>
<path d="M61.0546 150.952C61.7544 151.374 62.3269 151.917 62.7722 152.52L63.9174 154.208C64.4899 155.053 65.8259 155.053 66.3984 154.208L67.6708 152.279C68.0525 151.736 68.4978 151.314 69.0067 151.012C71.1697 149.806 72.5693 147.575 72.5693 145.043C72.5693 141.183 69.3248 138.108 65.2533 138.108H64.9352C60.8637 138.108 57.6193 141.183 57.6193 145.043C57.7465 147.575 59.0825 149.746 61.0546 150.952ZM64.9988 142.751H65.1261C66.5893 142.751 67.798 143.897 67.798 145.284C67.798 146.188 67.2891 147.033 66.462 147.455C66.2712 147.575 66.0803 147.756 65.9531 147.937L65.4442 148.661C65.2533 148.962 64.7444 148.962 64.5535 148.661L64.1082 148.058C63.9174 147.817 63.7265 147.636 63.472 147.455C62.7086 146.972 62.2633 146.188 62.2633 145.284C62.2633 143.897 63.472 142.751 64.9988 142.751Z" fill="#2D1415"/>
<path d="M121.3 72.9837C122 73.4058 122.572 73.9485 123.018 74.5515L124.163 76.2399C124.735 77.0841 126.071 77.0841 126.644 76.2399L127.916 74.3103C128.298 73.7676 128.743 73.3455 129.252 73.044C131.415 71.8379 132.815 69.6068 132.815 67.0742C132.815 63.215 129.57 60.1396 125.499 60.1396H125.181C121.109 60.1396 117.865 63.215 117.865 67.0742C117.928 69.6068 119.264 71.7174 121.3 72.9837ZM125.181 64.7225H125.308C126.771 64.7225 127.98 65.8682 127.98 67.2551C127.98 68.1596 127.471 69.0038 126.644 69.4259C126.453 69.5465 126.262 69.7274 126.135 69.9083L125.626 70.6319C125.435 70.9334 124.926 70.9334 124.735 70.6319L124.29 70.0289C124.099 69.7877 123.908 69.6068 123.654 69.4259C122.89 68.9435 122.445 68.1596 122.445 67.2551C122.509 65.8682 123.717 64.7225 125.181 64.7225Z" fill="#2D1415"/>
<path d="M253.242 148.902C253.942 149.324 254.514 149.867 254.96 150.47L256.105 152.158C256.677 153.002 258.013 153.002 258.586 152.158L259.858 150.228C260.24 149.686 260.685 149.264 261.194 148.962C263.357 147.756 264.757 145.525 264.757 142.992C264.757 139.133 261.512 136.058 257.441 136.058H257.123C253.051 136.058 249.807 139.133 249.807 142.992C249.87 145.525 251.206 147.696 253.242 148.902ZM257.123 140.641H257.25C258.713 140.641 259.922 141.786 259.922 143.173C259.922 144.078 259.413 144.922 258.586 145.344C258.395 145.465 258.204 145.646 258.077 145.827L257.568 146.55C257.377 146.852 256.868 146.852 256.677 146.55L256.232 145.947C256.041 145.706 255.85 145.525 255.596 145.344C254.832 144.862 254.387 144.078 254.387 143.173C254.451 141.786 255.659 140.641 257.123 140.641Z" fill="#2D1415"/>
<path d="M317.304 150.952C318.004 151.374 318.577 151.917 319.022 152.52L320.167 154.208C320.74 155.053 322.076 155.053 322.648 154.208L323.92 152.279C324.302 151.736 324.747 151.314 325.256 151.012C327.419 149.806 328.819 147.575 328.819 145.043C328.819 141.183 325.574 138.108 321.503 138.108H321.185C317.113 138.108 313.869 141.183 313.869 145.043C313.933 147.575 315.269 149.746 317.304 150.952ZM321.185 142.751H321.312C322.775 142.751 323.984 143.897 323.984 145.284C323.984 146.188 323.475 147.033 322.648 147.455C322.457 147.575 322.266 147.756 322.139 147.937L321.63 148.661C321.439 148.962 320.93 148.962 320.74 148.661L320.294 148.058C320.103 147.817 319.913 147.636 319.658 147.455C318.895 146.972 318.449 146.188 318.449 145.284C318.513 143.897 319.722 142.751 321.185 142.751Z" fill="#2D1415"/>
<path d="M381.367 150.952C382.067 151.374 382.639 151.917 383.084 152.52L384.23 154.208C384.802 155.053 386.138 155.053 386.711 154.208L387.983 152.279C388.365 151.736 388.81 151.314 389.319 151.012C391.482 149.806 392.881 147.575 392.881 145.043C392.881 141.183 389.637 138.108 385.566 138.108H385.247C381.176 138.108 377.931 141.183 377.931 145.043C377.995 147.575 379.331 149.746 381.367 150.952ZM385.247 142.751H385.375C386.838 142.751 388.047 143.897 388.047 145.284C388.047 146.188 387.538 147.033 386.711 147.455C386.52 147.575 386.329 147.756 386.202 147.937L385.693 148.661C385.502 148.962 384.993 148.962 384.802 148.661L384.357 148.058C384.166 147.817 383.975 147.636 383.721 147.455C382.957 146.972 382.512 146.188 382.512 145.284C382.512 143.897 383.721 142.751 385.247 142.751Z" fill="#2D1415"/>
<path d="M445.366 148.902C446.065 149.324 446.638 149.867 447.083 150.47L448.228 152.158C448.801 153.002 450.137 153.002 450.709 152.158L451.982 150.228C452.363 149.686 452.809 149.264 453.318 148.962C455.481 147.756 456.88 145.525 456.88 142.992C456.88 139.133 453.636 136.058 449.564 136.058H449.246C445.175 136.058 441.93 139.133 441.93 142.992C442.057 145.525 443.393 147.696 445.366 148.902ZM449.31 140.641H449.437C450.9 140.641 452.109 141.786 452.109 143.173C452.109 144.078 451.6 144.922 450.773 145.344C450.582 145.465 450.391 145.646 450.264 145.827L449.755 146.55C449.564 146.852 449.055 146.852 448.865 146.55L448.419 145.947C448.228 145.706 448.037 145.525 447.783 145.344C447.02 144.862 446.574 144.078 446.574 143.173C446.574 141.786 447.783 140.641 449.31 140.641Z" fill="#2D1415"/>
<path d="M306.998 17.9897C304.072 16.2409 301.591 13.8892 299.682 11.1154L294.657 3.81905C292.176 0.140721 286.514 0.140721 284.033 3.81905L278.434 12.0199C276.907 14.251 274.999 16.1806 272.581 17.5072C263.421 22.6931 257.25 32.1603 257.25 43.0143C257.25 59.4764 271.309 72.8028 288.677 72.8028H289.949C307.316 72.8028 321.376 59.4764 321.376 43.0143C321.376 32.5221 315.65 23.2961 306.998 17.9897ZM290.203 53.386H289.758C283.333 53.386 278.18 48.4414 278.18 42.4113C278.18 38.4315 280.47 34.9341 283.842 33.0045C284.732 32.5221 285.432 31.7985 286.005 30.9543L288.04 27.9392C288.931 26.6126 291.03 26.6126 291.985 27.9392L293.83 30.6527C294.529 31.6779 295.42 32.5221 296.502 33.1854C299.682 35.115 301.845 38.5521 301.845 42.4113C301.782 48.5017 296.629 53.386 290.203 53.386Z" stroke="#2D1415" stroke-miterlimit="10"/>
<path d="M271.754 127.556C274.681 129.304 277.162 131.656 279.07 134.43L284.096 141.786C286.577 145.465 292.239 145.465 294.72 141.786L300.319 133.586C301.845 131.355 303.754 129.425 306.171 128.098C315.332 122.912 321.503 113.445 321.503 102.591C321.503 86.1291 307.444 72.8027 290.076 72.8027H288.804C271.436 72.8027 257.377 86.1291 257.377 102.591C257.313 113.023 263.103 122.249 271.754 127.556ZM288.486 92.1592H288.931C295.356 92.1592 300.509 97.1038 300.509 103.134C300.509 107.114 298.219 110.611 294.847 112.541C293.957 113.023 293.257 113.747 292.684 114.591L290.649 117.606C289.758 118.933 287.659 118.933 286.704 117.606L284.86 114.892C284.16 113.867 283.269 113.023 282.188 112.36C279.007 110.43 276.844 106.993 276.844 103.134C276.907 97.1038 282.124 92.1592 288.486 92.1592Z" stroke="#2D1415" stroke-miterlimit="10"/>
<path d="M370.997 17.9897C368.071 16.2409 365.59 13.8892 363.681 11.1154L358.655 3.75875C356.174 0.0804179 350.512 0.0804179 348.031 3.75875L342.433 11.9596C340.906 14.1907 338.998 16.1203 336.58 17.447C327.547 22.6931 321.376 32.1603 321.376 43.0143C321.376 59.4764 335.435 72.8028 352.803 72.8028H354.075C371.442 72.8028 385.502 59.4764 385.502 43.0143C385.438 32.5221 379.713 23.2961 370.997 17.9897ZM354.266 53.386H353.821C347.395 53.386 342.242 48.4414 342.242 42.4113C342.242 38.4315 344.532 34.9341 347.904 33.0045C348.795 32.5221 349.495 31.7985 350.067 30.9543L352.103 27.9392C352.994 26.6126 355.093 26.6126 356.047 27.9392L357.892 30.6528C358.592 31.6779 359.482 32.5221 360.564 33.1854C363.745 35.115 365.908 38.5521 365.908 42.4113C365.844 48.5017 360.691 53.386 354.266 53.386Z" stroke="#2D1415" stroke-miterlimit="10"/>
<path d="M335.817 127.556C338.743 129.304 341.224 131.656 343.133 134.43L348.159 141.786C350.64 145.465 356.302 145.465 358.783 141.786L364.381 133.586C365.908 131.355 367.816 129.425 370.234 128.098C379.395 122.912 385.565 113.445 385.565 102.591C385.565 86.1291 371.506 72.8027 354.139 72.8027H352.866C335.499 72.8027 321.439 86.1291 321.439 102.591C321.376 113.023 327.165 122.249 335.817 127.556ZM352.548 92.1592H352.994C359.419 92.1592 364.572 97.1038 364.572 103.134C364.572 107.114 362.282 110.611 358.91 112.541C358.019 113.023 357.319 113.747 356.747 114.591L354.711 117.606C353.821 118.933 351.721 118.933 350.767 117.606L348.922 114.892C348.222 113.867 347.332 113.023 346.25 112.36C343.069 110.43 340.906 106.993 340.906 103.134C340.97 97.1038 346.186 92.1592 352.548 92.1592Z" stroke="#2D1415" stroke-miterlimit="10"/>
<path d="M435.06 17.9897C432.133 16.2409 429.652 13.8892 427.744 11.1154L422.718 3.75875C420.237 0.0804181 414.575 0.0804181 412.094 3.75875L406.495 11.9596C404.969 14.1907 403.06 16.1203 400.643 17.447C391.482 22.6328 385.311 32.1 385.311 42.954C385.311 59.4161 399.37 72.7425 416.738 72.7425H418.01C435.378 72.7425 449.437 59.4161 449.437 42.954C449.501 32.5221 443.775 23.2961 435.06 17.9897ZM418.328 53.386H417.883C411.458 53.386 406.305 48.4414 406.305 42.4113C406.305 38.4315 408.595 34.9341 411.967 33.0045C412.857 32.5221 413.557 31.7985 414.13 30.9543L416.165 27.9392C417.056 26.6126 419.155 26.6126 420.11 27.9392L421.954 30.6528C422.654 31.6779 423.545 32.5221 424.626 33.1854C427.807 35.115 429.97 38.5521 429.97 42.4113C429.907 48.5017 424.69 53.386 418.328 53.386Z" stroke="#2D1415" stroke-miterlimit="10"/>
<path d="M399.879 127.556C402.806 129.304 405.287 131.656 407.195 134.43L412.221 141.786C414.702 145.465 420.364 145.465 422.845 141.786L428.443 133.586C429.97 131.355 431.879 129.425 434.296 128.098C443.457 122.912 449.628 113.445 449.628 102.591C449.628 86.1291 435.569 72.8027 418.201 72.8027H416.929C399.561 72.8027 385.502 86.1291 385.502 102.591C385.438 113.023 391.164 122.249 399.879 127.556ZM416.611 92.1592H417.056C423.481 92.1592 428.634 97.1038 428.634 103.134C428.634 107.114 426.344 110.611 422.972 112.541C422.082 113.023 421.382 113.747 420.809 114.591L418.774 117.606C417.883 118.933 415.784 118.933 414.829 117.606L412.984 114.892C412.285 113.867 411.394 113.023 410.312 112.36C407.132 110.43 404.969 106.993 404.969 103.134C405.032 97.1038 410.249 92.1592 416.611 92.1592Z" stroke="#2D1415" stroke-miterlimit="10"/>
<path d="M499.122 17.9897C496.196 16.2409 493.715 13.8892 491.806 11.1154L486.78 3.75875C484.299 0.0804181 478.637 0.0804181 476.156 3.75875L470.558 11.9596C469.031 14.1907 467.123 16.1203 464.705 17.447C455.544 22.6328 449.373 32.1 449.373 42.954C449.373 59.4161 463.433 72.7425 480.8 72.7425H482.073C499.44 72.7425 513.5 59.4161 513.5 42.954C513.563 32.5221 507.774 23.2961 499.122 17.9897ZM482.391 53.386H481.945C475.52 53.386 470.367 48.4414 470.367 42.4113C470.367 38.4315 472.657 34.9341 476.029 33.0045C476.92 32.5221 477.619 31.7985 478.192 30.9543L480.228 27.9392C481.118 26.6126 483.218 26.6126 484.172 27.9392L486.017 30.6528C486.717 31.6779 487.607 32.5221 488.689 33.1854C491.87 35.115 494.033 38.5521 494.033 42.4113C493.969 48.5017 488.752 53.386 482.391 53.386Z" stroke="#2D1415" stroke-miterlimit="10"/>
<path d="M463.942 127.556C466.868 129.304 469.349 131.656 471.258 134.43L476.284 141.786C478.765 145.465 484.427 145.465 486.908 141.786L492.506 133.586C494.033 131.355 495.941 129.425 498.359 128.098C507.52 122.912 513.69 113.445 513.69 102.591C513.69 86.1291 499.631 72.8027 482.264 72.8027H480.991C463.624 72.8027 449.564 86.1291 449.564 102.591C449.501 113.023 455.226 122.249 463.942 127.556ZM480.673 92.1592H481.118C487.544 92.1592 492.697 97.1038 492.697 103.134C492.697 107.114 490.407 110.611 487.035 112.541C486.144 113.023 485.444 113.747 484.872 114.591L482.836 117.606C481.945 118.933 479.846 118.933 478.892 117.606L477.047 114.892C476.347 113.867 475.456 113.023 474.375 112.36C471.194 110.43 469.031 106.993 469.031 103.134C469.095 97.1038 474.248 92.1592 480.673 92.1592Z" stroke="#2D1415" stroke-miterlimit="10"/>
<path d="M50.7486 161.444C47.8222 159.696 45.3411 157.344 43.4326 154.57L38.4069 147.213C35.9258 143.535 30.2639 143.535 27.7828 147.213L22.1845 155.414C20.6577 157.645 18.7492 159.575 16.3317 160.902C7.17086 166.088 1 175.555 1 186.409C1 202.871 15.0594 216.197 32.4269 216.197H33.6992C51.0667 216.197 65.1261 202.871 65.1261 186.409C65.1897 175.916 59.4641 166.751 50.7486 161.444ZM34.0173 196.841H33.572C27.1466 196.841 21.9936 191.896 21.9936 185.866C21.9936 181.886 24.2839 178.389 27.6556 176.459C28.5462 175.977 29.246 175.253 29.8186 174.409L31.8543 171.394C32.7449 170.067 34.8443 170.067 35.7986 171.394L37.6435 174.107C38.3432 175.133 39.2339 175.977 40.3154 176.64C43.4962 178.57 45.6592 182.007 45.6592 185.866C45.5956 191.896 40.379 196.841 34.0173 196.841Z" stroke="#2D1415" stroke-miterlimit="10"/>
<path d="M15.5683 271.01C18.4947 272.759 20.9758 275.111 22.8843 277.885L27.91 285.241C30.3911 288.92 36.053 288.92 38.5341 285.241L44.1324 277.04C45.6592 274.809 47.5677 272.88 49.9852 271.553C59.146 266.367 65.3169 256.9 65.3169 246.046C65.3169 229.584 51.2575 216.258 33.89 216.258H32.6177C15.2502 216.258 1.19083 229.584 1.19083 246.046C1.12722 256.478 6.85275 265.704 15.5683 271.01ZM32.2996 235.614H32.7449C39.1703 235.614 44.3232 240.559 44.3232 246.589C44.3232 250.568 42.033 254.066 38.6613 255.996C37.7707 256.478 37.0709 257.202 36.4983 258.046L34.4626 261.061C33.5719 262.387 31.4726 262.387 30.5183 261.061L28.6734 258.347C27.9736 257.322 27.083 256.478 26.0015 255.815C22.8207 253.885 20.6577 250.448 20.6577 246.589C20.7213 240.498 25.9379 235.614 32.2996 235.614Z" stroke="#2D1415" stroke-miterlimit="10"/>
<path d="M114.811 161.444C111.885 159.696 109.404 157.344 107.495 154.57L102.469 147.213C99.9882 143.535 94.3263 143.535 91.8452 147.213L86.2469 155.414C84.7201 157.645 82.8116 159.575 80.3942 160.902C71.2333 166.088 65.0624 175.555 65.0624 186.409C65.0624 202.871 79.1218 216.197 96.4893 216.197H97.7616C115.129 216.197 129.188 202.871 129.188 186.409C129.252 175.916 123.463 166.751 114.811 161.444ZM98.0797 196.841H97.6344C91.2091 196.841 86.0561 191.896 86.0561 185.866C86.0561 181.886 88.3463 178.389 91.718 176.459C92.6086 175.977 93.3084 175.253 93.881 174.409L95.9167 171.394C96.8074 170.067 98.9067 170.067 99.861 171.394L101.706 174.107C102.406 175.133 103.296 175.977 104.378 176.64C107.559 178.57 109.722 182.007 109.722 185.866C109.658 191.896 104.441 196.841 98.0797 196.841Z" stroke="#2D1415" stroke-miterlimit="10"/>
<path d="M79.6307 271.01C82.5571 272.759 85.0382 275.111 86.9467 277.885L91.9725 285.241C94.4535 288.92 100.115 288.92 102.597 285.241L108.195 277.04C109.722 274.809 111.63 272.88 114.048 271.553C123.208 266.367 129.379 256.9 129.379 246.046C129.379 229.584 115.32 216.258 97.9525 216.258H96.6801C79.3127 216.258 65.2533 229.584 65.2533 246.046C65.1897 256.478 70.9152 265.704 79.6307 271.01ZM96.362 235.614H96.8074C103.233 235.614 108.386 240.559 108.386 246.589C108.386 250.568 106.095 254.066 102.724 255.996C101.833 256.478 101.133 257.202 100.561 258.046L98.525 261.061C97.6344 262.387 95.535 262.387 94.5808 261.061L92.7359 258.347C92.0361 257.322 91.1454 256.478 90.0639 255.815C86.8831 253.885 84.7201 250.448 84.7201 246.589C84.7837 240.498 89.9367 235.614 96.362 235.614Z" stroke="#2D1415" stroke-miterlimit="10"/>
<path d="M178.873 161.444C175.947 159.696 173.466 157.344 171.558 154.57L166.532 147.213C164.051 143.535 158.389 143.535 155.908 147.213L150.309 155.414C148.783 157.645 146.874 159.575 144.457 160.902C135.296 166.088 129.125 175.555 129.125 186.409C129.125 202.871 143.184 216.197 160.552 216.197H161.824C179.192 216.197 193.251 202.871 193.251 186.409C193.315 175.916 187.525 166.751 178.873 161.444ZM162.142 196.841H161.697C155.272 196.841 150.119 191.896 150.119 185.866C150.119 181.886 152.409 178.389 155.78 176.459C156.671 175.977 157.371 175.253 157.943 174.409L159.979 171.394C160.87 170.067 162.969 170.067 163.923 171.394L165.768 174.107C166.468 175.133 167.359 175.977 168.44 176.64C171.621 178.57 173.784 182.007 173.784 185.866C173.72 191.896 168.504 196.841 162.142 196.841Z" stroke="#2D1415" stroke-miterlimit="10"/>
<path d="M143.63 271.01C146.556 272.759 149.037 275.111 150.946 277.885L155.971 285.241C158.452 288.92 164.114 288.92 166.595 285.241L172.194 277.04C173.72 274.809 175.629 272.88 178.046 271.553C187.207 266.367 193.378 256.9 193.378 246.046C193.378 229.584 179.319 216.258 161.951 216.258H160.679C143.312 216.258 129.252 229.584 129.252 246.046C129.252 256.478 134.978 265.704 143.63 271.01ZM160.425 235.614H160.87C167.295 235.614 172.448 240.559 172.448 246.589C172.448 250.568 170.158 254.066 166.786 255.996C165.896 256.478 165.196 257.202 164.623 258.046L162.587 261.061C161.697 262.387 159.598 262.387 158.643 261.061L156.798 258.347C156.099 257.322 155.208 256.478 154.126 255.815C150.946 253.885 148.783 250.448 148.783 246.589C148.846 240.498 153.999 235.614 160.425 235.614Z" stroke="#2D1415" stroke-miterlimit="10"/>
<path d="M242.936 161.444C240.01 159.696 237.528 157.344 235.62 154.57L230.594 147.213C228.113 143.535 222.451 143.535 219.97 147.213L214.372 155.414C212.845 157.645 210.937 159.575 208.519 160.902C199.358 166.088 193.187 175.555 193.187 186.409C193.187 202.871 207.247 216.197 224.614 216.197H225.887C243.254 216.197 257.313 202.871 257.313 186.409C257.313 175.916 251.588 166.751 242.936 161.444ZM226.141 196.841H225.696C219.27 196.841 214.117 191.896 214.117 185.866C214.117 181.886 216.408 178.389 219.779 176.459C220.67 175.977 221.37 175.253 221.942 174.409L223.978 171.394C224.869 170.067 226.968 170.067 227.922 171.394L229.767 174.107C230.467 175.133 231.358 175.977 232.439 176.64C235.62 178.57 237.783 182.007 237.783 185.866C237.719 191.896 232.566 196.841 226.141 196.841Z" stroke="#2D1415" stroke-miterlimit="10"/>
<path d="M207.692 271.01C210.618 272.759 213.099 275.111 215.008 277.885L220.034 285.241C222.515 288.92 228.177 288.92 230.658 285.241L236.256 277.04C237.783 274.809 239.691 272.88 242.109 271.553C251.27 266.367 257.441 256.9 257.441 246.046C257.441 229.584 243.381 216.258 226.014 216.258H224.741C207.374 216.258 193.315 229.584 193.315 246.046C193.315 256.478 199.04 265.704 207.692 271.01ZM224.487 235.614H224.932C231.358 235.614 236.511 240.559 236.511 246.589C236.511 250.568 234.22 254.066 230.849 255.996C229.958 256.478 229.258 257.202 228.686 258.046L226.65 261.061C225.759 262.387 223.66 262.387 222.706 261.061L220.861 258.347C220.161 257.322 219.27 256.478 218.189 255.815C215.008 253.885 212.845 250.448 212.845 246.589C212.845 240.498 218.062 235.614 224.487 235.614Z" stroke="#2D1415" stroke-miterlimit="10"/>
<path d="M306.998 161.444C304.072 159.696 301.591 157.344 299.682 154.57L294.657 147.213C292.176 143.535 286.514 143.535 284.033 147.213L278.434 155.414C276.907 157.645 274.999 159.575 272.581 160.902C263.421 166.088 257.25 175.555 257.25 186.409C257.25 202.871 271.309 216.197 288.677 216.197H289.949C307.316 216.197 321.376 202.871 321.376 186.409C321.376 175.916 315.65 166.751 306.998 161.444ZM290.203 196.841H289.758C283.333 196.841 278.18 191.896 278.18 185.866C278.18 181.886 280.47 178.389 283.842 176.459C284.732 175.977 285.432 175.253 286.005 174.409L288.04 171.394C288.931 170.067 291.03 170.067 291.985 171.394L293.83 174.107C294.529 175.133 295.42 175.977 296.502 176.64C299.682 178.57 301.845 182.007 301.845 185.866C301.782 191.896 296.629 196.841 290.203 196.841Z" stroke="#2D1415" stroke-miterlimit="10"/>
<path d="M271.754 271.01C274.681 272.759 277.162 275.111 279.07 277.885L284.096 285.241C286.577 288.92 292.239 288.92 294.72 285.241L300.319 277.04C301.845 274.809 303.754 272.88 306.171 271.553C315.332 266.367 321.503 256.9 321.503 246.046C321.503 229.584 307.444 216.258 290.076 216.258H288.804C271.436 216.258 257.377 229.584 257.377 246.046C257.313 256.478 263.103 265.704 271.754 271.01ZM288.486 235.614H288.931C295.356 235.614 300.509 240.559 300.509 246.589C300.509 250.568 298.219 254.066 294.847 255.996C293.957 256.478 293.257 257.202 292.684 258.046L290.649 261.061C289.758 262.387 287.659 262.387 286.704 261.061L284.86 258.347C284.16 257.322 283.269 256.478 282.188 255.815C279.007 253.885 276.844 250.448 276.844 246.589C276.907 240.498 282.124 235.614 288.486 235.614Z" stroke="#2D1415" stroke-miterlimit="10"/>
<path d="M370.997 161.444C368.071 159.696 365.59 157.344 363.681 154.57L358.655 147.213C356.174 143.535 350.512 143.535 348.031 147.213L342.433 155.414C340.906 157.645 338.998 159.575 336.58 160.902C327.419 166.088 321.249 175.555 321.249 186.409C321.249 202.871 335.308 216.197 352.675 216.197H353.948C371.315 216.197 385.375 202.871 385.375 186.409C385.438 175.916 379.713 166.751 370.997 161.444ZM354.266 196.841H353.821C347.395 196.841 342.242 191.896 342.242 185.866C342.242 181.886 344.532 178.389 347.904 176.459C348.795 175.977 349.495 175.253 350.067 174.409L352.103 171.394C352.994 170.067 355.093 170.067 356.047 171.394L357.892 174.107C358.592 175.133 359.482 175.977 360.564 176.64C363.745 178.57 365.908 182.007 365.908 185.866C365.844 191.896 360.691 196.841 354.266 196.841Z" stroke="#2D1415" stroke-miterlimit="10"/>
<path d="M335.817 271.01C338.743 272.759 341.224 275.111 343.133 277.885L348.159 285.241C350.64 288.92 356.302 288.92 358.783 285.241L364.381 277.04C365.908 274.809 367.816 272.88 370.234 271.553C379.395 266.367 385.565 256.9 385.565 246.046C385.565 229.584 371.506 216.258 354.139 216.258H352.866C335.499 216.258 321.439 229.584 321.439 246.046C321.376 256.478 327.165 265.704 335.817 271.01ZM352.548 235.614H352.994C359.419 235.614 364.572 240.559 364.572 246.589C364.572 250.568 362.282 254.066 358.91 255.996C358.019 256.478 357.319 257.202 356.747 258.046L354.711 261.061C353.821 262.387 351.721 262.387 350.767 261.061L348.922 258.347C348.222 257.322 347.332 256.478 346.25 255.815C343.069 253.885 340.906 250.448 340.906 246.589C340.97 240.498 346.186 235.614 352.548 235.614Z" stroke="#2D1415" stroke-miterlimit="10"/>
<path d="M435.06 161.444C432.133 159.696 429.652 157.344 427.744 154.57L422.718 147.213C420.237 143.535 414.575 143.535 412.094 147.213L406.495 155.414C404.969 157.645 403.06 159.575 400.643 160.902C391.482 166.088 385.311 175.555 385.311 186.409C385.311 202.871 399.37 216.197 416.738 216.197H418.01C435.378 216.197 449.437 202.871 449.437 186.409C449.501 175.916 443.775 166.751 435.06 161.444ZM418.328 196.841H417.883C411.458 196.841 406.305 191.896 406.305 185.866C406.305 181.886 408.595 178.389 411.967 176.459C412.857 175.977 413.557 175.253 414.13 174.409L416.165 171.394C417.056 170.067 419.155 170.067 420.11 171.394L421.954 174.107C422.654 175.133 423.545 175.977 424.626 176.64C427.807 178.57 429.97 182.007 429.97 185.866C429.907 191.896 424.69 196.841 418.328 196.841Z" stroke="#2D1415" stroke-miterlimit="10"/>
<path d="M399.879 271.01C402.806 272.759 405.287 275.111 407.195 277.885L412.221 285.241C414.702 288.92 420.364 288.92 422.845 285.241L428.443 277.04C429.97 274.809 431.879 272.88 434.296 271.553C443.457 266.367 449.628 256.9 449.628 246.046C449.628 229.584 435.569 216.258 418.201 216.258H416.929C399.561 216.258 385.502 229.584 385.502 246.046C385.438 256.478 391.164 265.704 399.879 271.01ZM416.611 235.614H417.056C423.481 235.614 428.634 240.559 428.634 246.589C428.634 250.568 426.344 254.066 422.972 255.996C422.082 256.478 421.382 257.202 420.809 258.046L418.774 261.061C417.883 262.387 415.784 262.387 414.829 261.061L412.984 258.347C412.285 257.322 411.394 256.478 410.312 255.815C407.132 253.885 404.969 250.448 404.969 246.589C405.032 240.498 410.249 235.614 416.611 235.614Z" stroke="#2D1415" stroke-miterlimit="10"/>
<path d="M499.122 161.444C496.196 159.696 493.715 157.344 491.806 154.57L486.78 147.213C484.299 143.535 478.637 143.535 476.156 147.213L470.558 155.414C469.031 157.645 467.123 159.575 464.705 160.902C455.544 166.088 449.373 175.555 449.373 186.409C449.373 202.871 463.433 216.197 480.8 216.197H482.073C499.44 216.197 513.5 202.871 513.5 186.409C513.563 175.916 507.774 166.751 499.122 161.444ZM482.391 196.841H481.945C475.52 196.841 470.367 191.896 470.367 185.866C470.367 181.886 472.657 178.389 476.029 176.459C476.92 175.977 477.619 175.253 478.192 174.409L480.228 171.394C481.118 170.067 483.218 170.067 484.172 171.394L486.017 174.107C486.717 175.133 487.607 175.977 488.689 176.64C491.87 178.57 494.033 182.007 494.033 185.866C493.969 191.896 488.752 196.841 482.391 196.841Z" stroke="#2D1415" stroke-miterlimit="10"/>
<path d="M463.942 271.01C466.868 272.759 469.349 275.111 471.258 277.885L476.284 285.241C478.765 288.92 484.427 288.92 486.908 285.241L492.506 277.04C494.033 274.809 495.941 272.88 498.359 271.553C507.52 266.367 513.69 256.9 513.69 246.046C513.69 229.584 499.631 216.258 482.264 216.258H480.991C463.624 216.258 449.564 229.584 449.564 246.046C449.501 256.478 455.226 265.704 463.942 271.01ZM480.673 235.614H481.118C487.544 235.614 492.697 240.559 492.697 246.589C492.697 250.568 490.407 254.066 487.035 255.996C486.144 256.478 485.444 257.202 484.872 258.046L482.836 261.061C481.945 262.387 479.846 262.387 478.892 261.061L477.047 258.347C476.347 257.322 475.456 256.478 474.375 255.815C471.194 253.885 469.031 250.448 469.031 246.589C469.095 240.498 474.248 235.614 480.673 235.614Z" stroke="#2D1415" stroke-miterlimit="10"/>
</svg>
